<mxfile host="app.diagrams.net" modified="2023-11-22T05:11:47.088Z" agent="Mozilla/5.0 (Macintosh; Intel Mac OS X 10_15_7) AppleWebKit/537.36 (KHTML, like Gecko) Chrome/119.0.0.0 Safari/537.36" version="22.1.3" etag="2ljh_Yz3BmdFe3wJgzED" type="github">
  <diagram name="Page-1" id="xkCNBOZ8g_fltPwsv139">
    <mxGraphModel>
      <root>
        <mxCell id="0" />
        <mxCell id="1" parent="0" />
      </root>
    </mxGraphModel>
  </diagram>
</mxfile>
